<?xml version="1.0" encoding="UTF-8"?><svg id="Layer_1" xmlns="http://www.w3.org/2000/svg" viewBox="0 0 1094.927 1476.016"><defs><style>.cls-1{fill:#245a7c;}.cls-1,.cls-2{stroke-width:0px;}.cls-3{stroke:#fff;}.cls-3,.cls-4{fill:none;stroke-miterlimit:10;stroke-width:2px;}.cls-4{stroke:#245a7c;}.cls-2{fill:#fff;}</style></defs><path class="cls-1" d="M71.629,1368.106c0-16.211,3.841-29.248,11.523-39.111,7.681-9.863,17.74-14.795,30.176-14.795,12.369,0,22.168,4.233,29.395,12.695v-55.078h18.066v150h-16.602l-.879-11.328c-7.227,8.854-17.285,13.281-30.176,13.281-12.241,0-22.217-5.013-29.932-15.039-7.715-10.025-11.572-23.111-11.572-39.258v-1.367ZM89.695,1370.157c0,11.979,2.474,21.354,7.422,28.125,4.947,6.772,11.783,10.156,20.508,10.156,11.458,0,19.824-5.142,25.098-15.43v-48.535c-5.405-9.961-13.706-14.941-24.902-14.941-8.854,0-15.756,3.418-20.703,10.254-4.948,6.836-7.422,16.96-7.422,30.371Z"/><path class="cls-1" d="M254.05,1421.817c-1.042-2.083-1.889-5.794-2.539-11.133-8.398,8.725-18.425,13.086-30.078,13.086-10.417,0-18.962-2.945-25.635-8.838-6.674-5.892-10.01-13.362-10.01-22.412,0-11.001,4.183-19.546,12.549-25.635,8.365-6.087,20.132-9.131,35.303-9.131h17.578v-8.301c0-6.314-1.889-11.343-5.664-15.088-3.776-3.743-9.343-5.615-16.699-5.615-6.445,0-11.85,1.628-16.211,4.883-4.362,3.256-6.543,7.194-6.543,11.816h-18.164c0-5.273,1.871-10.367,5.615-15.283,3.743-4.915,8.821-8.804,15.234-11.67,6.412-2.864,13.46-4.297,21.143-4.297,12.173,0,21.712,3.044,28.613,9.131,6.9,6.088,10.481,14.47,10.742,25.146v48.633c0,9.702,1.236,17.417,3.711,23.145v1.562h-18.945ZM224.07,1408.047c5.664,0,11.035-1.465,16.113-4.395s8.755-6.738,11.035-11.426v-21.68h-14.16c-22.136,0-33.203,6.479-33.203,19.434,0,5.664,1.888,10.092,5.664,13.281,3.775,3.19,8.626,4.785,14.551,4.785Z"/><path class="cls-1" d="M348.679,1332.364c-2.734-.455-5.698-.684-8.887-.684-11.85,0-19.89,5.046-24.121,15.137v75h-18.066v-105.664h17.578l.293,12.207c5.923-9.439,14.322-14.16,25.195-14.16,3.516,0,6.185.456,8.008,1.367v16.797Z"/><path class="cls-1" d="M384.91,1421.817h-18.066v-150h18.066v150Z"/><path class="cls-1" d="M479.05,1421.817c-1.042-2.083-1.889-5.794-2.539-11.133-8.398,8.725-18.425,13.086-30.078,13.086-10.417,0-18.962-2.945-25.635-8.838-6.674-5.892-10.01-13.362-10.01-22.412,0-11.001,4.183-19.546,12.549-25.635,8.365-6.087,20.132-9.131,35.303-9.131h17.578v-8.301c0-6.314-1.889-11.343-5.664-15.088-3.776-3.743-9.343-5.615-16.699-5.615-6.445,0-11.85,1.628-16.211,4.883-4.362,3.256-6.543,7.194-6.543,11.816h-18.164c0-5.273,1.871-10.367,5.615-15.283,3.743-4.915,8.821-8.804,15.234-11.67,6.412-2.864,13.46-4.297,21.143-4.297,12.173,0,21.712,3.044,28.613,9.131,6.9,6.088,10.481,14.47,10.742,25.146v48.633c0,9.702,1.236,17.417,3.711,23.145v1.562h-18.945ZM449.07,1408.047c5.664,0,11.035-1.465,16.113-4.395s8.755-6.738,11.035-11.426v-21.68h-14.16c-22.136,0-33.203,6.479-33.203,19.434,0,5.664,1.888,10.092,5.664,13.281,3.775,3.19,8.626,4.785,14.551,4.785Z"/><path class="cls-1" d="M539.695,1316.153l.586,13.281c8.072-10.156,18.619-15.234,31.641-15.234,22.33,0,33.594,12.598,33.789,37.793v69.824h-18.066v-69.922c-.065-7.617-1.807-13.248-5.225-16.895-3.418-3.646-8.74-5.469-15.967-5.469-5.859,0-11.003,1.562-15.43,4.688-4.428,3.125-7.878,7.227-10.352,12.305v75.293h-18.066v-105.664h17.09Z"/><path class="cls-1" d="M628.562,1368.106c0-16.211,3.841-29.248,11.523-39.111,7.681-9.863,17.74-14.795,30.176-14.795,12.369,0,22.168,4.233,29.395,12.695v-55.078h18.066v150h-16.602l-.879-11.328c-7.227,8.854-17.285,13.281-30.176,13.281-12.241,0-22.217-5.013-29.932-15.039-7.715-10.025-11.572-23.111-11.572-39.258v-1.367ZM646.629,1370.157c0,11.979,2.474,21.354,7.422,28.125,4.947,6.772,11.783,10.156,20.508,10.156,11.458,0,19.824-5.142,25.098-15.43v-48.535c-5.405-9.961-13.706-14.941-24.902-14.941-8.854,0-15.756,3.418-20.703,10.254-4.948,6.836-7.422,16.96-7.422,30.371Z"/><path class="cls-1" d="M807.273,1393.79c0-4.883-1.84-8.675-5.518-11.377-3.679-2.701-10.092-5.029-19.238-6.982-9.147-1.953-16.406-4.297-21.777-7.031s-9.343-5.989-11.914-9.766c-2.573-3.775-3.857-8.267-3.857-13.477,0-8.658,3.662-15.982,10.986-21.973,7.324-5.989,16.683-8.984,28.076-8.984,11.978,0,21.695,3.093,29.15,9.277,7.454,6.186,11.182,14.096,11.182,23.73h-18.164c0-4.947-2.1-9.212-6.299-12.793-4.199-3.58-9.489-5.371-15.869-5.371-6.577,0-11.719,1.433-15.43,4.297-3.711,2.866-5.566,6.608-5.566,11.23,0,4.362,1.724,7.651,5.176,9.863,3.45,2.214,9.683,4.331,18.701,6.348,9.017,2.019,16.324,4.428,21.924,7.227,5.599,2.8,9.749,6.169,12.451,10.107,2.701,3.94,4.053,8.74,4.053,14.404,0,9.44-3.776,17.009-11.328,22.705-7.553,5.698-17.351,8.545-29.395,8.545-8.464,0-15.952-1.499-22.461-4.492-6.511-2.994-11.606-7.178-15.283-12.549-3.679-5.371-5.518-11.182-5.518-17.432h18.066c.325,6.055,2.75,10.856,7.275,14.404,4.524,3.549,10.498,5.322,17.92,5.322,6.836,0,12.32-1.382,16.455-4.15,4.134-2.767,6.201-6.46,6.201-11.084Z"/><path class="cls-4" d="M160.639,1282.518c95.799,34.866,206.055,0,206.055,0"/><path class="cls-4" d="M384.76,1282.518c169.032,39.685,314.746,0,314.746,0"/><path class="cls-2" d="M78.237,1080.129c0-16.211,3.841-29.248,11.523-39.111,7.681-9.863,17.74-14.795,30.176-14.795,12.369,0,22.168,4.233,29.395,12.695v-55.078h18.066v150h-16.602l-.879-11.328c-7.227,8.854-17.285,13.281-30.176,13.281-12.241,0-22.217-5.013-29.932-15.039-7.715-10.025-11.572-23.111-11.572-39.258v-1.367ZM96.303,1082.18c0,11.979,2.474,21.354,7.422,28.125,4.947,6.772,11.783,10.156,20.508,10.156,11.458,0,19.824-5.142,25.098-15.43v-48.535c-5.405-9.961-13.706-14.941-24.902-14.941-8.854,0-15.756,3.418-20.703,10.254-4.948,6.836-7.422,16.96-7.422,30.371Z"/><path class="cls-2" d="M260.659,1133.84c-1.042-2.083-1.889-5.794-2.539-11.133-8.398,8.725-18.425,13.086-30.078,13.086-10.417,0-18.962-2.945-25.635-8.838-6.674-5.892-10.01-13.362-10.01-22.412,0-11.001,4.183-19.546,12.549-25.635,8.365-6.087,20.132-9.131,35.303-9.131h17.578v-8.301c0-6.314-1.889-11.343-5.664-15.088-3.776-3.743-9.343-5.615-16.699-5.615-6.445,0-11.85,1.628-16.211,4.883-4.362,3.256-6.543,7.194-6.543,11.816h-18.164c0-5.273,1.871-10.367,5.615-15.283,3.743-4.915,8.821-8.804,15.234-11.67,6.412-2.864,13.46-4.297,21.143-4.297,12.173,0,21.712,3.044,28.613,9.131,6.9,6.088,10.481,14.47,10.742,25.146v48.633c0,9.702,1.236,17.417,3.711,23.145v1.562h-18.945ZM230.678,1120.071c5.664,0,11.035-1.465,16.113-4.395s8.755-6.738,11.035-11.426v-21.68h-14.16c-22.136,0-33.203,6.479-33.203,19.434,0,5.664,1.888,10.092,5.664,13.281,3.775,3.19,8.626,4.785,14.551,4.785Z"/><path class="cls-2" d="M355.288,1044.387c-2.734-.455-5.698-.684-8.887-.684-11.85,0-19.89,5.046-24.121,15.137v75h-18.066v-105.664h17.578l.293,12.207c5.923-9.439,14.322-14.16,25.195-14.16,3.516,0,6.185.456,8.008,1.367v16.797Z"/><path class="cls-2" d="M391.518,1133.84h-18.066v-150h18.066v150Z"/><path class="cls-2" d="M485.659,1133.84c-1.042-2.083-1.889-5.794-2.539-11.133-8.398,8.725-18.425,13.086-30.078,13.086-10.417,0-18.962-2.945-25.635-8.838-6.674-5.892-10.01-13.362-10.01-22.412,0-11.001,4.183-19.546,12.549-25.635,8.365-6.087,20.132-9.131,35.303-9.131h17.578v-8.301c0-6.314-1.889-11.343-5.664-15.088-3.776-3.743-9.343-5.615-16.699-5.615-6.445,0-11.85,1.628-16.211,4.883-4.362,3.256-6.543,7.194-6.543,11.816h-18.164c0-5.273,1.871-10.367,5.615-15.283,3.743-4.915,8.821-8.804,15.234-11.67,6.412-2.864,13.46-4.297,21.143-4.297,12.173,0,21.712,3.044,28.613,9.131,6.9,6.088,10.481,14.47,10.742,25.146v48.633c0,9.702,1.236,17.417,3.711,23.145v1.562h-18.945ZM455.678,1120.071c5.664,0,11.035-1.465,16.113-4.395s8.755-6.738,11.035-11.426v-21.68h-14.16c-22.136,0-33.203,6.479-33.203,19.434,0,5.664,1.888,10.092,5.664,13.281,3.775,3.19,8.626,4.785,14.551,4.785Z"/><path class="cls-2" d="M546.303,1028.176l.586,13.281c8.072-10.156,18.619-15.234,31.641-15.234,22.33,0,33.594,12.598,33.789,37.793v69.824h-18.066v-69.922c-.065-7.617-1.807-13.248-5.225-16.895-3.418-3.646-8.74-5.469-15.967-5.469-5.859,0-11.003,1.562-15.43,4.688-4.428,3.125-7.878,7.227-10.352,12.305v75.293h-18.066v-105.664h17.09Z"/><path class="cls-2" d="M635.171,1080.129c0-16.211,3.841-29.248,11.523-39.111,7.681-9.863,17.74-14.795,30.176-14.795,12.369,0,22.168,4.233,29.395,12.695v-55.078h18.066v150h-16.602l-.879-11.328c-7.227,8.854-17.285,13.281-30.176,13.281-12.241,0-22.217-5.013-29.932-15.039-7.715-10.025-11.572-23.111-11.572-39.258v-1.367ZM653.237,1082.18c0,11.979,2.474,21.354,7.422,28.125,4.947,6.772,11.783,10.156,20.508,10.156,11.458,0,19.824-5.142,25.098-15.43v-48.535c-5.405-9.961-13.706-14.941-24.902-14.941-8.854,0-15.756,3.418-20.703,10.254-4.948,6.836-7.422,16.96-7.422,30.371Z"/><path class="cls-2" d="M813.881,1105.813c0-4.883-1.84-8.675-5.518-11.377-3.679-2.701-10.092-5.029-19.238-6.982-9.147-1.953-16.406-4.297-21.777-7.031s-9.343-5.989-11.914-9.766c-2.573-3.775-3.857-8.267-3.857-13.477,0-8.658,3.662-15.982,10.986-21.973,7.324-5.989,16.683-8.984,28.076-8.984,11.978,0,21.695,3.093,29.15,9.277,7.454,6.186,11.182,14.096,11.182,23.73h-18.164c0-4.947-2.1-9.212-6.299-12.793-4.199-3.58-9.489-5.371-15.869-5.371-6.577,0-11.719,1.433-15.43,4.297-3.711,2.866-5.566,6.608-5.566,11.23,0,4.362,1.724,7.651,5.176,9.863,3.45,2.214,9.683,4.331,18.701,6.348,9.017,2.019,16.324,4.428,21.924,7.227,5.599,2.8,9.749,6.169,12.451,10.107,2.701,3.94,4.053,8.74,4.053,14.404,0,9.44-3.776,17.009-11.328,22.705-7.553,5.698-17.351,8.545-29.395,8.545-8.464,0-15.952-1.499-22.461-4.492-6.511-2.994-11.606-7.178-15.283-12.549-3.679-5.371-5.518-11.182-5.518-17.432h18.066c.325,6.055,2.75,10.856,7.275,14.404,4.524,3.549,10.498,5.322,17.92,5.322,6.836,0,12.32-1.382,16.455-4.15,4.134-2.767,6.201-6.46,6.201-11.084Z"/><path class="cls-3" d="M167.248,994.542c95.799,34.866,206.055,0,206.055,0"/><path class="cls-3" d="M391.369,994.542c169.032,39.685,314.746,0,314.746,0"/><path class="cls-2" d="M159.769,58.401c17.2,0,32.999,8.8,40.599,21.399V21.802h18.4v147.998h-18.4v-20.6c-6.6,12.199-20.8,22.399-40.799,22.399-29.399,0-51.999-23-51.999-56.999,0-34.199,22.6-56.199,52.199-56.199ZM163.169,74.201c-20,0-37,14.6-37,40.399s17,40.999,37,40.999,37.199-15,37.199-40.799c0-25.4-17.2-40.6-37.199-40.6Z"/><path class="cls-2" d="M294.767,58.401c20.399,0,34.399,10.399,40.799,21.8v-20h18.4v109.599h-18.4v-20.4c-6.6,11.8-20.8,22.2-41,22.2-29.199,0-51.799-23-51.799-56.999,0-34.199,22.6-56.199,51.999-56.199ZM298.367,74.201c-20,0-37,14.6-37,40.399s17,40.999,37,40.999,37.199-15,37.199-40.799c0-25.4-17.2-40.6-37.199-40.6Z"/><path class="cls-2" d="M402.967,169.8h-18.2V60.201h18.2v17.8c6.2-12.2,18-19.8,35.399-19.8v18.8h-4.8c-17.4,0-30.6,7.8-30.6,33.199v59.6Z"/><path class="cls-2" d="M459.364,21.802h18.2v147.998h-18.2V21.802Z"/><path class="cls-2" d="M553.761,58.401c20.399,0,34.399,10.399,40.799,21.8v-20h18.4v109.599h-18.4v-20.4c-6.6,11.8-20.8,22.2-41,22.2-29.199,0-51.799-23-51.799-56.999,0-34.199,22.6-56.199,51.999-56.199ZM557.361,74.201c-20,0-37,14.6-37,40.399s17,40.999,37,40.999,37.199-15,37.199-40.799c0-25.4-17.2-40.6-37.199-40.6Z"/><path class="cls-2" d="M723.959,107.801c0-22.4-12.2-33.8-30.6-33.8-18.6,0-31.399,11.6-31.399,35.199v60.6h-18.2V60.201h18.2v15.6c7.2-11.399,20.399-17.6,35.199-17.6,25.4,0,44.799,15.6,44.799,46.999v64.6h-18v-61.999Z"/><path class="cls-2" d="M817.159,58.401c17.2,0,33,8.8,40.6,21.399V21.802h18.399v147.998h-18.399v-20.6c-6.6,12.199-20.8,22.399-40.8,22.399-29.399,0-51.999-23-51.999-56.999,0-34.199,22.6-56.199,52.199-56.199ZM820.56,74.201c-20,0-37,14.6-37,40.399s17,40.999,37,40.999,37.199-15,37.199-40.799c0-25.4-17.2-40.6-37.199-40.6Z"/><path class="cls-2" d="M945.758,171.6c-25.599,0-43.599-14-44.799-34h18.8c1,10.601,10.4,18.601,25.8,18.601,14.4,0,22.398-7.2,22.398-16.2,0-24.399-64.798-10.2-64.798-50.999,0-16.8,15.8-30.6,40.199-30.6,24.201,0,40.201,13,41.4,34.399h-18.199c-.801-11-9.201-19-23.801-19-13.399,0-21.399,6.4-21.399,15.2,0,25.999,63.598,11.8,64.399,50.999,0,18-15.801,31.6-40,31.6Z"/><path class="cls-3" d="M218.171,29.072c112.679,34.866,242.362,0,242.362,0"/><path class="cls-3" d="M475.464,28.639c206.021,39.685,383.621,0,383.621,0"/></svg>